# xmcd
#
# Track frame offsets: 
#        150
#        1818
#        17914
#        35092
#        51518
#        69004
#        86967
#        103002
#        122353
#        140955
#        157608
#        208204
#
# Disc length: 2815 seconds
#
# Revision: 0
# Processed by: cddbd v1.5.2PL0 Copyright (c) Steve Scherf et al.
# Submitted via: ExactAudioCopy v0.90b4
#
DISCID=a10afd0c
DTITLE=Travesura - Bachata Con Travesura
DYEAR=2007
DGENRE=Latin
TTITLE0=Intro Travesura
TTITLE1=En La Casa De Inés
TTITLE2=Labios Compartidos
TTITLE3=Rios De Fuego
TTITLE4=Búscate Un Hombre Que Te Quiera
TTITLE5=Ella
TTITLE6=El Progreso
TTITLE7=Niña Bonita
TTITLE8=Ella (Versión Acustica)
TTITLE9=En La Casa De Inés (Dance-mix)
TTITLE10=Travesura Medley
TTITLE11=Outro
EXTD=
EXTT0=
EXTT1=
EXTT2=
EXTT3=
EXTT4=
EXTT5=
EXTT6=
EXTT7=
EXTT8=
EXTT9=
EXTT10=
EXTT11=
PLAYORDER=
